<?xml version="1.0" encoding="UTF-8"?>
<!DOCTYPE svg PUBLIC "-//W3C//DTD SVG 1.1//EN" "http://www.w3.org/Graphics/SVG/1.1/DTD/svg11.dtd">
<!-- Creator: CorelDRAW X7 -->
<svg xmlns="http://www.w3.org/2000/svg" xml:space="preserve" width="84.6666mm" height="84.6666mm" version="1.1" style="shape-rendering:geometricPrecision; text-rendering:geometricPrecision; image-rendering:optimizeQuality; fill-rule:evenodd; clip-rule:evenodd"
viewBox="0 0 5549 5549"
 xmlns:xlink="http://www.w3.org/1999/xlink">
 <defs>
  <style type="text/css">
   <![CDATA[
    .fil0 {fill:#2E4656}
   ]]>
  </style>
 </defs>
 <g id="Layer_x0020_1">
  <metadata id="CorelCorpID_0Corel-Layer"/>
  <path class="fil0" d="M0 4832c0,396 321,717 714,717l4118 0c396,0 717,-321 717,-717l0 -4118c0,-393 -321,-714 -717,-714l-4118 0c-393,0 -714,321 -714,714l0 4118 0 0zm2300 -2379l0 -785 693 0c64,0 128,7 189,18 64,10 118,28 164,57 47,28 86,68 111,118 28,50 43,114 43,192 0,143 -43,243 -125,307 -86,65 -193,93 -325,93l-750 0 0 0zm-739 -1357l0 3357 1628 0c154,0 300,-18 443,-57 143,-36 268,-93 378,-171 111,-79 200,-183 268,-304 64,-125 97,-271 97,-439 0,-211 -50,-393 -150,-539 -104,-150 -258,-254 -465,-315 150,-71 265,-164 340,-278 78,-111 117,-254 117,-422 0,-157 -28,-289 -78,-396 -54,-107 -125,-193 -218,-257 -96,-64 -207,-111 -339,-139 -132,-29 -279,-40 -439,-40l-1582 0 0 0zm739 2786l0 -925 807 0c157,0 286,39 386,111 96,75 146,196 146,371 0,86 -18,157 -46,214 -29,57 -72,104 -122,136 -50,32 -107,57 -171,71 -68,15 -136,22 -207,22l-793 0 0 0z"/>
 </g>
</svg>
