<?xml version="1.0" encoding="UTF-8"?>
<!DOCTYPE svg PUBLIC "-//W3C//DTD SVG 1.1//EN" "http://www.w3.org/Graphics/SVG/1.1/DTD/svg11.dtd">
<!-- Creator: CorelDRAW X7 -->
<svg xmlns="http://www.w3.org/2000/svg" xml:space="preserve" width="46.4047mm" height="64.1317mm" version="1.1" style="shape-rendering:geometricPrecision; text-rendering:geometricPrecision; image-rendering:optimizeQuality; fill-rule:evenodd; clip-rule:evenodd"
viewBox="0 0 1493 2064"
 xmlns:xlink="http://www.w3.org/1999/xlink">
 <defs>
  <style type="text/css">
   <![CDATA[
    .fil0 {fill:#2E4656}
   ]]>
  </style>
 </defs>
 <g id="Layer_x0020_1">
  <metadata id="CorelCorpID_0Corel-Layer"/>
  <g id="_20833260320">
   <polygon class="fil0" points="588,1882 633,2064 851,2064 894,1879 "/>
   <path class="fil0" d="M701 1753l9 26 5 11 53 1 6 -3 8 -18c32,-83 117,-440 135,-531 48,-247 84,-499 67,-751 -7,-95 -25,-202 -61,-291 -27,-69 -68,-147 -140,-178 -78,-32 -154,48 -187,113 -179,344 -65,939 19,1291l28 121c19,70 40,132 58,209l0 0 0 0z"/>
   <path class="fil0" d="M679 1771l-31 -26c-371,-349 -880,-1520 -78,-1737 33,-9 26,-7 58,-8 -631,272 -205,1331 51,1771l0 0z"/>
   <path class="fil0" d="M814 1771l31 -26c371,-349 880,-1520 78,-1737 -33,-9 -26,-7 -58,-8 631,272 205,1331 -51,1771l0 0z"/>
   <path class="fil0" d="M311 93c-157,74 -279,233 -305,406l-6 74 1 59 8 65 5 31c62,342 346,790 596,1029 -346,-462 -868,-1192 -299,-1664l0 0 0 0z"/>
   <path class="fil0" d="M1182 93c157,74 279,233 305,406l6 74 -1 59 -8 65 -4 31c-63,342 -347,790 -597,1029 345,-462 868,-1192 299,-1664l0 0 0 0z"/>
  </g>
 </g>
</svg>
