<?xml version="1.0" encoding="UTF-8"?>
<!DOCTYPE svg PUBLIC "-//W3C//DTD SVG 1.1//EN" "http://www.w3.org/Graphics/SVG/1.1/DTD/svg11.dtd">
<!-- Creator: CorelDRAW X7 -->
<svg xmlns="http://www.w3.org/2000/svg" xml:space="preserve" width="62.8553mm" height="18.6303mm" version="1.1" style="shape-rendering:geometricPrecision; text-rendering:geometricPrecision; image-rendering:optimizeQuality; fill-rule:evenodd; clip-rule:evenodd"
viewBox="0 0 2040 605"
 xmlns:xlink="http://www.w3.org/1999/xlink">
 <defs>
  <style type="text/css">
   <![CDATA[
    .fil0 {fill:#2E4656;fill-rule:nonzero}
   ]]>
  </style>
 </defs>
 <g id="Layer_x0020_1">
  <metadata id="CorelCorpID_0Corel-Layer"/>
  <path class="fil0" d="M241 455l-241 0 0 -455 231 0 0 48 -178 0 0 152 165 0 0 48 -165 0 0 159 188 0 0 48zm318 -325l-109 165 107 160 -61 0 -63 -105c-4,-7 -9,-15 -14,-25l-2 0c-1,2 -6,10 -15,25l-65 105 -60 0 111 -159 -106 -166 61 0 63 111c4,8 9,17 13,26l1 0 82 -137 57 0zm114 278l-1 0 0 197 -52 0 0 -475 52 0 0 57 1 0c26,-43 63,-65 113,-65 42,0 74,15 98,44 23,29 35,68 35,117 0,54 -13,98 -40,131 -26,33 -62,49 -108,49 -42,0 -75,-18 -98,-55zm-1 -131l0 45c0,27 9,50 26,69 18,19 40,28 67,28 31,0 56,-12 74,-36 18,-24 27,-58 27,-101 0,-36 -8,-65 -25,-85 -17,-21 -40,-31 -68,-31 -30,0 -55,10 -73,31 -19,22 -28,48 -28,80zm500 -94c-9,-7 -22,-11 -39,-11 -23,0 -41,11 -56,32 -15,21 -23,49 -23,85l0 166 -52 0 0 -325 52 0 0 67 2 0c7,-23 18,-41 34,-54 15,-12 32,-19 51,-19 13,0 24,2 31,5l0 54zm318 123l-230 0c1,36 11,64 29,84 19,19 44,29 77,29 37,0 70,-12 101,-36l0 49c-29,20 -66,31 -113,31 -46,0 -82,-15 -108,-44 -27,-30 -40,-72 -40,-125 0,-51 14,-92 43,-124 29,-32 64,-48 107,-48 43,0 75,14 99,42 23,27 35,65 35,114l0 28zm-54 -45c0,-30 -7,-53 -21,-70 -15,-17 -35,-25 -60,-25 -24,0 -45,9 -62,26 -18,18 -28,41 -32,69l175 0zm113 182l0 -56c28,22 59,32 93,32 46,0 69,-15 69,-46 0,-8 -2,-16 -6,-22 -4,-6 -9,-11 -16,-16 -7,-5 -15,-9 -24,-12 -8,-4 -18,-8 -28,-12 -15,-6 -27,-12 -38,-17 -11,-6 -20,-13 -28,-20 -7,-7 -12,-16 -16,-25 -4,-9 -6,-20 -6,-33 0,-15 4,-28 11,-40 7,-12 16,-22 28,-30 11,-8 25,-14 40,-18 14,-4 30,-6 46,-6 28,0 53,5 75,15l0 52c-24,-15 -51,-23 -82,-23 -10,0 -19,1 -27,3 -7,2 -14,6 -20,10 -5,4 -10,8 -13,14 -3,6 -4,12 -4,19 0,8 1,15 4,21 3,6 8,11 14,15 6,5 13,9 21,12 9,4 18,8 29,12 15,6 27,11 39,17 11,6 21,13 29,20 8,7 14,16 18,25 5,10 7,21 7,34 0,16 -4,30 -11,42 -7,12 -16,22 -28,30 -12,7 -25,13 -41,17 -15,4 -32,6 -48,6 -34,0 -63,-7 -87,-20zm276 0l0 -56c28,22 59,32 93,32 46,0 69,-15 69,-46 0,-8 -2,-16 -6,-22 -4,-6 -10,-11 -16,-16 -7,-5 -15,-9 -24,-12 -9,-4 -18,-8 -29,-12 -14,-6 -27,-12 -37,-17 -11,-6 -20,-13 -28,-20 -7,-7 -12,-16 -16,-25 -4,-9 -6,-20 -6,-33 0,-15 4,-28 11,-40 7,-12 16,-22 28,-30 11,-8 24,-14 39,-18 15,-4 31,-6 46,-6 29,0 54,5 76,15l0 52c-24,-15 -51,-23 -82,-23 -10,0 -19,1 -27,3 -7,2 -14,6 -20,10 -5,4 -10,8 -13,14 -3,6 -4,12 -4,19 0,8 1,15 4,21 3,6 8,11 14,15 6,5 13,9 21,12 9,4 18,8 29,12 14,6 27,11 39,17 11,6 21,13 29,20 8,7 14,16 18,25 5,10 7,21 7,34 0,16 -4,30 -11,42 -7,12 -16,22 -28,30 -12,7 -26,13 -41,17 -15,4 -32,6 -49,6 -33,0 -62,-7 -86,-20z"/>
 </g>
</svg>
