<?xml version="1.0" encoding="UTF-8"?>
<!DOCTYPE svg PUBLIC "-//W3C//DTD SVG 1.1//EN" "http://www.w3.org/Graphics/SVG/1.1/DTD/svg11.dtd">
<!-- Creator: CorelDRAW X7 -->
<svg xmlns="http://www.w3.org/2000/svg" xml:space="preserve" width="84.7749mm" height="82.6569mm" version="1.1" style="shape-rendering:geometricPrecision; text-rendering:geometricPrecision; image-rendering:optimizeQuality; fill-rule:evenodd; clip-rule:evenodd"
viewBox="0 0 6448 6287"
 xmlns:xlink="http://www.w3.org/1999/xlink"
 aria-hidden="true"
 focusable="false"
 data-prefix="fab"
 data-icon="github"
 role="img">
 <defs>
  <style type="text/css">
   <![CDATA[
    .fil0 {fill:#2E4656}
   ]]>
  </style>
 </defs>
 <g id="Layer_x0020_1">
  <metadata id="CorelCorpID_0Corel-Layer"/>
  <g id="_59433029648">
   <path class="fil0" d="M2157 5062c0,26 -30,47 -68,47 -43,4 -73,-17 -73,-47 0,-26 30,-46 68,-46 39,-4 73,17 73,46zm-405 -58c-9,26 17,56 56,64 34,13 73,0 81,-26 8,-26 -17,-56 -56,-68 -34,-9 -71,4 -81,30zm575 -22c-38,9 -64,34 -60,64 4,26 38,42 77,33 38,-9 64,-33 60,-59 -4,-25 -39,-42 -77,-38zm856 -4982c-1804,0 -3183,1369 -3183,3172 0,1442 907,2676 2204,3110 166,30 225,-73 225,-157 0,-81 -4,-526 -4,-799 0,0 -910,195 -1102,-387 0,0 -148,-378 -361,-476 0,0 -298,-204 21,-200 0,0 324,26 502,335 284,502 762,358 947,272 30,-208 115,-352 208,-438 -726,-81 -1460,-186 -1460,-1437 0,-357 99,-537 307,-765 -34,-85 -144,-433 34,-883 272,-85 897,351 897,351 260,-73 540,-111 817,-111 276,0 556,38 816,111 0,0 625,-437 897,-351 178,451 68,798 34,883 208,230 335,409 335,765 0,1255 -765,1355 -1492,1437 119,103 221,298 221,603 0,438 -4,980 -4,1087 0,85 60,187 225,157 1300,-431 2181,-1665 2181,-3107 0,-1803 -1462,-3172 -3265,-3172zm-1919 4484c-17,13 -13,43 9,68 21,20 50,29 67,13 17,-13 13,-43 -9,-68 -21,-21 -50,-30 -67,-13zm-141 -105c-9,17 4,37 30,50 21,13 47,9 56,-9 9,-17 -4,-37 -30,-50 -26,-8 -47,-4 -56,9zm421 462c-20,17 -13,56 17,81 30,30 68,34 85,13 17,-17 9,-56 -17,-81 -29,-29 -68,-33 -85,-13zm-148 -191c-21,13 -21,47 0,77 21,30 56,43 73,30 21,-17 21,-51 0,-81 -18,-30 -52,-43 -73,-26z"/>
  </g>
 </g>
</svg>
