<?xml version="1.0" encoding="UTF-8"?>
<!DOCTYPE svg PUBLIC "-//W3C//DTD SVG 1.1//EN" "http://www.w3.org/Graphics/SVG/1.1/DTD/svg11.dtd">
<!-- Creator: CorelDRAW X7 -->
<svg xmlns="http://www.w3.org/2000/svg" xml:space="preserve" width="210mm" height="204.753mm" version="1.1" style="shape-rendering:geometricPrecision; text-rendering:geometricPrecision; image-rendering:optimizeQuality; fill-rule:evenodd; clip-rule:evenodd"
viewBox="0 0 20897 20375"
 xmlns:xlink="http://www.w3.org/1999/xlink"
 aria-hidden="true"
 focusable="false"
 data-prefix="fab"
 data-icon="github"
 role="img">
 <defs>
  <style type="text/css">
   <![CDATA[
    .fil0 {fill:white}
   ]]>
  </style>
 </defs>
 <g id="Layer_x0020_1">
  <metadata id="CorelCorpID_0Corel-Layer"/>
  <g id="github-brands.svg">
   <path class="fil0" d="M6989 16406c0,84 -96,151 -219,151 -139,13 -236,-54 -236,-151 0,-85 97,-152 220,-152 126,-13 235,55 235,152zm-1310 -190c-29,84 55,181 181,206 110,43 236,0 262,-84 25,-84 -55,-181 -182,-219 -109,-29 -231,13 -261,97zm1862 -72c-122,30 -206,110 -193,207 12,84 122,139 248,109 122,-29 207,-109 194,-193 -13,-80 -126,-135 -249,-123zm2773 -16144c-5844,0 -10314,4436 -10314,10280 0,4672 2941,8670 7141,10077 539,97 729,-235 729,-509 0,-262 -13,-1702 -13,-2587 0,0 -2949,632 -3568,-1256 0,0 -480,-1226 -1171,-1542 0,0 -965,-661 67,-648 0,0 1049,84 1626,1087 923,1626 2469,1158 3072,880 96,-674 370,-1142 674,-1420 -2355,-261 -4732,-602 -4732,-4655 0,-1159 321,-1740 995,-2482 -110,-273 -468,-1403 109,-2860 881,-274 2907,1137 2907,1137 843,-236 1749,-358 2646,-358 897,0 1803,122 2646,358 0,0 2026,-1415 2907,-1137 577,1462 219,2587 109,2860 674,746 1087,1327 1087,2482 0,4065 -2481,4390 -4836,4655 387,333 716,965 716,1955 0,1420 -13,3177 -13,3522 0,274 194,607 729,510 4213,-1399 7070,-5397 7070,-10069 0,-5844 -4740,-10280 -10583,-10280zm-6219 14531c-55,42 -42,139 30,219 67,67 164,97 219,42 54,-42 42,-139 -30,-219 -67,-67 -164,-97 -219,-42zm-455 -341c-29,54 13,122 97,164 67,42 152,29 181,-30 30,-54 -13,-122 -97,-164 -84,-25 -151,-13 -181,30zm1365 1499c-67,55 -42,182 55,262 97,96 219,109 274,42 54,-55 29,-181 -55,-261 -93,-97 -219,-110 -274,-43zm-480 -619c-68,42 -68,152 0,249 67,97 181,139 236,97 67,-55 67,-165 0,-262 -59,-97 -169,-139 -236,-84z"/>
  </g>
 </g>
</svg>
