<?xml version="1.0" encoding="UTF-8"?>
<!DOCTYPE svg PUBLIC "-//W3C//DTD SVG 1.1//EN" "http://www.w3.org/Graphics/SVG/1.1/DTD/svg11.dtd">
<!-- Creator: CorelDRAW X7 -->
<svg xmlns="http://www.w3.org/2000/svg" xml:space="preserve" width="210mm" height="213.443mm" version="1.1" style="shape-rendering:geometricPrecision; text-rendering:geometricPrecision; image-rendering:optimizeQuality; fill-rule:evenodd; clip-rule:evenodd"
viewBox="0 0 23341 23723"
 xmlns:xlink="http://www.w3.org/1999/xlink"
 aria-hidden="true"
 focusable="false"
 data-prefix="fab"
 data-icon="google"
 role="img">
 <defs>
  <style type="text/css">
   <![CDATA[
    .fil0 {fill:white}
   ]]>
  </style>
 </defs>
 <g id="Layer_x0020_1">
  <metadata id="CorelCorpID_0Corel-Layer"/>
  <g id="google-brands.svg">
   <path class="fil0" d="M23341 12139c0,6768 -4635,11584 -11479,11584 -6563,0 -11862,-5299 -11862,-11861 0,-6563 5299,-11862 11862,-11862 3195,0 5883,1172 7954,3104l-3229 3104c-4223,-4075 -12077,-1014 -12077,5654 0,4137 3305,7490 7352,7490 4697,0 6457,-3367 6734,-5113l-6734 0 0 -4080 11292 0c110,607 187,1191 187,1980z"/>
  </g>
 </g>
</svg>
