<?xml version="1.0" encoding="UTF-8"?>
<!DOCTYPE svg PUBLIC "-//W3C//DTD SVG 1.1//EN" "http://www.w3.org/Graphics/SVG/1.1/DTD/svg11.dtd">
<!-- Creator: CorelDRAW X7 -->
<svg xmlns="http://www.w3.org/2000/svg" xml:space="preserve" width="76.4119mm" height="78mm" version="1.1" style="shape-rendering:geometricPrecision; text-rendering:geometricPrecision; image-rendering:optimizeQuality; fill-rule:evenodd; clip-rule:evenodd"
viewBox="0 0 7641 7800"
 xmlns:xlink="http://www.w3.org/1999/xlink"
 aria-hidden="true"
 focusable="false"
 data-prefix="fab"
 data-icon="java"
 role="img">
 <defs>
  <style type="text/css">
   <![CDATA[
    .fil0 {fill:#2E4656}
   ]]>
  </style>
 </defs>
 <g id="Layer_x0020_1">
  <metadata id="CorelCorpID_0Corel-Layer"/>
  <g id="_59432832656">
   <path class="fil0" d="M3995 4549c142,-97 340,-182 340,-182 0,0 -562,102 -1122,149 -685,56 -1421,68 -1790,19 -874,-117 480,-438 480,-438 0,0 -525,-35 -1172,276 -763,369 1890,538 3264,176zm-1242 -467c-276,-620 -1208,-1166 0,-2119 1507,-1190 735,-1963 735,-1963 312,1229 -1100,1601 -1610,2364 -347,522 170,1082 875,1718zm1666 -2561c2,0 -2547,637 -1330,2038 359,413 -94,785 -94,785 0,0 911,-471 493,-1060 -392,-549 -691,-823 931,-1763l0 0zm-88 3932c-8,14 -18,27 -29,38 1865,-490 1179,-1728 288,-1414 51,-19 105,-34 159,-44 451,-95 1098,603 -299,1329l-119 91zm685 906c0,0 211,173 -231,308 -842,255 -3501,332 -4239,11 -266,-115 232,-277 389,-310 163,-35 258,-29 258,-29 -295,-208 -1909,408 -820,584 2969,483 5414,-216 4643,-564zm-3250 -602c-1144,320 697,980 2153,356 -141,-54 -279,-122 -410,-200 -650,123 -951,132 -1541,65 -487,-55 -202,-221 -202,-221l0 0zm4767 1770c-1144,215 -2555,190 -3391,52 0,-2 171,141 1052,198 1341,85 3399,-48 3447,-682 0,0 -93,240 -1108,432l0 0zm-2787 -2395c-860,166 -1359,161 -1989,96 -487,-51 -168,-286 -168,-286 -1262,418 701,892 2464,376 -114,-40 -218,-104 -307,-186l0 0z"/>
  </g>
 </g>
</svg>
