<?xml version="1.0" encoding="UTF-8"?>
<!DOCTYPE svg PUBLIC "-//W3C//DTD SVG 1.1//EN" "http://www.w3.org/Graphics/SVG/1.1/DTD/svg11.dtd">
<!-- Creator: CorelDRAW X7 -->
<svg xmlns="http://www.w3.org/2000/svg" xml:space="preserve" width="210mm" height="209.995mm" version="1.1" style="shape-rendering:geometricPrecision; text-rendering:geometricPrecision; image-rendering:optimizeQuality; fill-rule:evenodd; clip-rule:evenodd"
viewBox="0 0 27526 27525"
 xmlns:xlink="http://www.w3.org/1999/xlink"
 aria-hidden="true"
 focusable="false"
 data-prefix="fab"
 data-icon="linkedin-in"
 role="img">
 <defs>
  <style type="text/css">
   <![CDATA[
    .fil0 {fill:white}
   ]]>
  </style>
 </defs>
 <g id="Layer_x0020_1">
  <metadata id="CorelCorpID_0Corel-Layer"/>
  <g id="linkedin-in-brands.svg">
   <path class="fil0" d="M6161 27525l-5706 0 0 -18377 5706 0 0 18377zm-2856 -20884c-1825,0 -3305,-1511 -3305,-3336 0,-1825 1480,-3305 3305,-3305 1825,0 3305,1480 3305,3305 0,1825 -1481,3336 -3305,3336l0 0zm24215 20884l-5695 0 0 -8946c0,-2132 -43,-4866 -2967,-4866 -2967,0 -3421,2317 -3421,4713l0 9099 -5701 0 0 -18377 5473 0 0 2507 80 0c762,-1444 2623,-2968 5400,-2968 5775,0 6837,3804 6837,8744l0 10094 -6 0z"/>
  </g>
 </g>
</svg>
