<?xml version="1.0" encoding="UTF-8"?>
<!DOCTYPE svg PUBLIC "-//W3C//DTD SVG 1.1//EN" "http://www.w3.org/Graphics/SVG/1.1/DTD/svg11.dtd">
<!-- Creator: CorelDRAW X7 -->
<svg xmlns="http://www.w3.org/2000/svg" xml:space="preserve" width="40.4625mm" height="90.3969mm" version="1.1" style="shape-rendering:geometricPrecision; text-rendering:geometricPrecision; image-rendering:optimizeQuality; fill-rule:evenodd; clip-rule:evenodd"
viewBox="0 0 953 2129"
 xmlns:xlink="http://www.w3.org/1999/xlink">
 <defs>
  <style type="text/css">
   <![CDATA[
    .fil2 {fill:#2E4656}
    .fil1 {fill:#95B0C2}
    .fil3 {fill:#E5E5E5}
    .fil0 {fill:white}
   ]]>
  </style>
 </defs>
 <g id="Layer_x0020_1">
  <metadata id="CorelCorpID_0Corel-Layer"/>
  <g id="_21058836384">
   <path class="fil0" d="M525 2129l-57 -20c0,0 7,-288 -97,-309 -69,-80 12,-3400 260,-11 0,0 -85,43 -101,116 -16,72 -5,224 -5,224l0 0z"/>
   <path class="fil1" d="M525 2129l-57 -20c0,0 7,-288 -97,-309 -69,-80 12,-3400 260,-11 0,0 -85,43 -101,116 -16,72 -5,224 -5,224l0 0z"/>
   <g>
    <path class="fil0" d="M555 1850c0,0 496,-326 380,-1005 -112,-493 -376,-655 -405,-717 -31,-45 -62,-122 -62,-122l21 1372c0,2 -43,420 66,472l0 0 0 0zm0 0l0 0 0 0z"/>
   </g>
   <g>
    <path class="fil2" d="M555 1850c0,0 496,-326 380,-1005 -112,-493 -376,-655 -405,-717 -31,-45 -62,-122 -62,-122l21 1372c0,2 -43,420 66,472l0 0 0 0zm0 0l0 0 0 0z"/>
   </g>
   <path class="fil3" d="M439 1868c0,0 -465,-318 -438,-878 26,-560 355,-835 419,-885 41,-44 43,-60 46,-105 29,63 23,931 27,1033 12,394 -22,760 -54,835l0 0 0 0z"/>
   <path class="fil2" d="M440 1867c0,0 -466,-318 -439,-877 27,-560 356,-835 419,-885 42,-44 43,-61 46,-105 29,62 23,930 27,1032 13,394 -21,761 -53,835l0 0z"/>
  </g>
 </g>
</svg>
