<?xml version="1.0" encoding="UTF-8"?>
<!DOCTYPE svg PUBLIC "-//W3C//DTD SVG 1.1//EN" "http://www.w3.org/Graphics/SVG/1.1/DTD/svg11.dtd">
<!-- Creator: CorelDRAW X7 -->
<svg xmlns="http://www.w3.org/2000/svg" xml:space="preserve" width="84.6667mm" height="82.5502mm" version="1.1" style="shape-rendering:geometricPrecision; text-rendering:geometricPrecision; image-rendering:optimizeQuality; fill-rule:evenodd; clip-rule:evenodd"
viewBox="0 0 7104 6927"
 xmlns:xlink="http://www.w3.org/1999/xlink">
 <defs>
  <style type="text/css">
   <![CDATA[
    .fil0 {fill:#2E4656}
   ]]>
  </style>
 </defs>
 <g id="Layer_x0020_1">
  <metadata id="CorelCorpID_0Corel-Layer"/>
  <path class="fil0" d="M296 296l6512 0 0 6335 -6512 0 0 -6335zm-296 6631l7104 0 0 -6927 -7104 0 0 6927zm4790 -4085c-234,0 -314,118 -314,216 0,106 53,180 367,343 465,225 610,441 610,758 0,474 -362,728 -850,728 -257,0 -480,-53 -607,-127 -21,-9 -23,-24 -23,-47l0 -436c0,-29 14,-38 35,-23 187,121 400,174 595,174 234,0 332,-97 332,-231 0,-106 -68,-201 -367,-355 -421,-201 -595,-405 -595,-746 0,-382 299,-698 817,-698 254,0 432,38 529,83 24,14 30,38 30,59l0 405c0,24 -15,39 -44,30 -131,-83 -323,-133 -515,-133l0 0zm-2546 352c68,6 121,6 240,6 346,0 672,-121 672,-592 0,-376 -234,-565 -628,-565 -118,0 -231,5 -284,8l0 1143 0 0zm-527 -1572c0,-21 41,-35 65,-35 189,-9 471,-15 764,-15 820,0 1139,450 1139,1024 0,752 -544,1075 -1213,1075 -113,0 -151,-6 -231,-6l0 1136c0,24 -9,36 -36,36l-453 0c-23,0 -35,-9 -35,-36l0 -3179 0 0z"/>
 </g>
</svg>
