<?xml version="1.0" encoding="UTF-8"?>
<!DOCTYPE svg PUBLIC "-//W3C//DTD SVG 1.1//EN" "http://www.w3.org/Graphics/SVG/1.1/DTD/svg11.dtd">
<!-- Creator: CorelDRAW X7 -->
<svg xmlns="http://www.w3.org/2000/svg" xml:space="preserve" width="79.8655mm" height="69.886mm" version="1.1" style="shape-rendering:geometricPrecision; text-rendering:geometricPrecision; image-rendering:optimizeQuality; fill-rule:evenodd; clip-rule:evenodd"
viewBox="0 0 7987 6989"
 xmlns:xlink="http://www.w3.org/1999/xlink"
 aria-hidden="true"
 focusable="false"
 data-prefix="fab"
 data-icon="react"
 role="img">
 <defs>
  <style type="text/css">
   <![CDATA[
    .fil0 {fill:#2E4656}
   ]]>
  </style>
 </defs>
 <g id="Layer_x0020_1">
  <metadata id="CorelCorpID_0Corel-Layer"/>
  <g id="_59433197232">
   <path class="fil0" d="M6523 2265c-84,-28 -168,-55 -252,-80 14,-58 26,-115 39,-173 192,-930 65,-1677 -361,-1923 -410,-236 -1079,9 -1756,599 -67,57 -133,118 -195,179 -42,-40 -86,-81 -130,-120 -709,-630 -1421,-895 -1846,-647 -409,237 -531,940 -359,1820 17,87 36,173 58,260 -100,29 -199,60 -291,93 -833,288 -1430,744 -1430,1215 0,486 636,975 1502,1271 70,23 141,47 212,67 -23,94 -43,186 -62,281 -164,866 -36,1552 373,1787 421,244 1129,-6 1819,-609 54,-49 109,-99 163,-152 69,67 141,131 212,194 668,574 1328,806 1735,571 421,-244 558,-982 381,-1880 -14,-69 -30,-139 -47,-211 50,-14 98,-29 146,-45 901,-298 1553,-780 1553,-1274 0,-473 -615,-932 -1464,-1223l0 0zm-2110 -1325c580,-505 1121,-703 1368,-561 264,151 365,763 200,1566 -11,53 -22,104 -36,156 -347,-78 -698,-134 -1050,-165 -203,-291 -424,-568 -665,-829 61,-57 120,-112 183,-167l0 0zm-1805 3357c80,136 161,272 247,404 -244,-26 -486,-65 -724,-117 68,-224 154,-457 254,-694 72,137 145,273 223,407l0 0zm-473 -1876c225,-50 464,-91 712,-122 -83,130 -164,262 -240,396 -77,133 -152,269 -222,406 -98,-233 -181,-460 -250,-680l0 0zm428 1074c103,-215 215,-425 334,-633 118,-207 246,-409 380,-607 234,-17 473,-26 716,-26 244,0 484,9 716,26 133,197 259,398 379,604 120,206 233,417 339,630 -105,215 -217,428 -337,637 -119,207 -245,408 -378,608 -232,17 -474,25 -719,25 -245,0 -482,-8 -711,-22 -136,-198 -264,-401 -384,-608 -120,-208 -231,-418 -335,-634l0 0zm2817 799c80,-137 154,-276 228,-416 100,226 187,455 263,691 -241,54 -486,96 -733,124 84,-131 164,-265 242,-399zm225 -1193c-74,-137 -149,-275 -227,-409 -76,-132 -156,-263 -238,-393 251,31 491,73 716,125 -72,231 -156,455 -251,677l0 0zm-1609 -1755c164,178 319,365 462,558 -309,-14 -619,-14 -928,0 153,-201 310,-388 466,-558zm-1809 -956c262,-153 844,65 1457,608 39,34 78,72 118,109 -241,261 -464,538 -669,829 -352,31 -702,85 -1048,162 -20,-80 -37,-161 -55,-242 -146,-755 -50,-1324 197,-1466l0 0zm-382 4112c-66,-19 -130,-39 -194,-61 -332,-105 -709,-270 -982,-487 -158,-109 -264,-278 -294,-466 0,-286 493,-651 1205,-899 89,-31 179,-59 269,-86 107,339 234,671 383,992 -150,326 -280,663 -387,1007l0 0zm1819 1528c-258,236 -556,423 -880,551 -173,83 -373,90 -551,20 -248,-143 -351,-694 -210,-1435 17,-87 35,-175 57,-260 350,74 702,126 1059,152 206,292 433,571 674,833 -50,49 -99,96 -149,139l0 0zm382 -379c-159,-171 -318,-362 -473,-566 150,6 304,9 460,9 161,0 318,-3 474,-11 -143,199 -297,387 -461,568l0 0zm2039 468c-15,190 -108,368 -258,488 -248,144 -777,-43 -1348,-533 -65,-56 -131,-117 -198,-179 239,-264 459,-543 659,-837 357,-29 712,-84 1063,-163 16,64 30,128 43,190 76,337 88,688 39,1034l0 0zm283 -1677c-43,14 -87,28 -132,41 -109,-340 -244,-672 -398,-995 150,-319 276,-646 382,-981 81,23 159,48 234,73 727,249 1237,621 1237,905 0,305 -544,700 -1323,957l0 0zm-2335 -234c395,0 715,-319 715,-714 0,-395 -320,-715 -715,-715 -394,0 -714,320 -714,715 0,395 320,714 714,714z"/>
  </g>
 </g>
</svg>
