<?xml version="1.0" encoding="UTF-8"?>
<!DOCTYPE svg PUBLIC "-//W3C//DTD SVG 1.1//EN" "http://www.w3.org/Graphics/SVG/1.1/DTD/svg11.dtd">
<!-- Creator: CorelDRAW X7 -->
<svg xmlns="http://www.w3.org/2000/svg" xml:space="preserve" width="84.6668mm" height="80.3784mm" version="1.1" style="shape-rendering:geometricPrecision; text-rendering:geometricPrecision; image-rendering:optimizeQuality; fill-rule:evenodd; clip-rule:evenodd"
viewBox="0 0 7253 6885"
 xmlns:xlink="http://www.w3.org/1999/xlink">
 <defs>
  <style type="text/css">
   <![CDATA[
    .fil0 {fill:#2E4656}
   ]]>
  </style>
 </defs>
 <g id="Layer_x0020_1">
  <metadata id="CorelCorpID_0Corel-Layer"/>
  <path class="fil0" d="M5025 4809c268,-28 471,-259 462,-536 -9,-276 -240,-498 -517,-498l-18 0c-287,9 -508,249 -499,535 9,139 65,259 148,342 -314,618 -794,1070 -1514,1449 -489,258 -997,351 -1504,286 -415,-55 -739,-240 -942,-545 -295,-452 -323,-941 -73,-1430 175,-351 452,-609 627,-739 -37,-120 -92,-323 -120,-470 -1338,969 -1200,2279 -794,2898 305,461 923,748 1606,748 185,0 370,-19 554,-65 1182,-231 2077,-932 2584,-1975zm1625 -1145c-702,-821 -1735,-1273 -2917,-1273l-147 0c-83,-167 -259,-277 -453,-277l-18 0c-286,9 -508,249 -498,535 9,277 239,498 516,498l19 0c203,-9 378,-138 452,-313l166 0c702,0 1366,203 1966,599 462,305 794,702 978,1182 157,388 148,766 -18,1089 -258,489 -692,757 -1264,757 -370,0 -720,-111 -905,-194 -102,92 -286,240 -415,332 397,185 803,286 1190,286 886,0 1542,-489 1791,-978 267,-535 249,-1458 -443,-2243l0 0zm-4689 1302c9,277 240,498 517,498l19 0c286,-9 507,-249 498,-535 -9,-277 -240,-499 -517,-499l-18 0c-19,0 -47,0 -65,9 -378,-627 -535,-1310 -480,-2049 37,-553 222,-1033 545,-1430 267,-342 784,-508 1135,-517 978,-18 1393,1200 1421,1689 120,28 323,92 462,139 -111,-1496 -1034,-2271 -1920,-2271 -831,0 -1597,600 -1901,1486 -425,1181 -148,2317 369,3212 -46,65 -74,166 -65,268l0 0z"/>
 </g>
</svg>
