<?xml version="1.0" encoding="UTF-8"?>
<!DOCTYPE svg PUBLIC "-//W3C//DTD SVG 1.1//EN" "http://www.w3.org/Graphics/SVG/1.1/DTD/svg11.dtd">
<!-- Creator: CorelDRAW X7 -->
<svg xmlns="http://www.w3.org/2000/svg" xml:space="preserve" width="84.67mm" height="63.457mm" version="1.1" style="shape-rendering:geometricPrecision; text-rendering:geometricPrecision; image-rendering:optimizeQuality; fill-rule:evenodd; clip-rule:evenodd"
viewBox="0 0 3286 2462"
 xmlns:xlink="http://www.w3.org/1999/xlink">
 <defs>
  <style type="text/css">
   <![CDATA[
    .fil0 {fill:#2E4656}
   ]]>
  </style>
 </defs>
 <g id="Layer_x0020_1">
  <metadata id="CorelCorpID_0Corel-Layer"/>
  <path class="fil0" d="M2828 1414c-114,1 -214,28 -298,69 -30,-61 -61,-114 -67,-153 -5,-47 -12,-75 -5,-130 7,-56 39,-134 39,-140 -1,-6 -7,-34 -73,-35 -66,0 -123,13 -129,31 -7,17 -20,56 -28,97 -12,61 -132,274 -201,387 -23,-43 -42,-82 -46,-113 -6,-46 -13,-75 -6,-129 8,-56 39,-134 39,-140 0,-7 -7,-34 -73,-35 -66,-1 -122,13 -129,30 -7,17 -14,58 -27,98 -14,40 -174,397 -217,490 -20,47 -39,85 -52,111 -14,26 -1,2 -2,4 -12,22 -19,34 -19,34l0 1c-8,16 -18,31 -22,31 -4,0 -10,-42 1,-102 23,-124 81,-316 81,-323 0,-4 10,-38 -38,-55 -47,-18 -63,11 -67,11 -4,0 -7,11 -7,11 0,0 52,-218 -99,-218 -95,0 -227,103 -291,198 -41,22 -129,70 -221,121 -35,18 -72,39 -106,58l-8 -8c-183,-196 -523,-334 -509,-598 6,-95 39,-347 653,-653 502,-250 904,-181 974,-29 100,219 -215,624 -737,682 -199,23 -303,-54 -330,-83 -28,-30 -31,-31 -41,-26 -17,10 -7,36 0,53 15,40 79,112 188,148 96,31 329,49 612,-61 316,-122 563,-462 491,-747 -74,-289 -554,-384 -1008,-223 -270,96 -563,246 -773,444 -250,233 -290,437 -274,522 59,302 475,499 642,645 -8,4 -16,9 -23,13 -83,41 -401,207 -481,383 -89,199 15,342 84,361 214,60 433,-47 552,-224 118,-176 104,-405 49,-510l-1 -4 65 -38c43,-25 84,-49 121,-68 -21,55 -35,121 -43,218 -9,112 37,259 98,317 27,25 59,25 79,25 71,0 103,-58 138,-128 44,-85 82,-184 82,-184 0,0 -48,268 84,268 48,0 96,-63 118,-95l0 1c0,0 1,-2 3,-7 3,-3 6,-8 8,-12l0 -1c19,-34 62,-110 126,-237 84,-162 163,-366 163,-366 0,0 8,50 31,132 14,49 45,102 69,154 -19,27 -31,42 -31,42l1 1c-15,20 -33,42 -50,64 -66,79 -145,167 -155,193 -12,30 -9,53 14,71 18,12 49,15 81,12 60,-3 100,-18 121,-27 32,-12 68,-29 104,-54 64,-48 103,-115 99,-205 -2,-49 -18,-98 -38,-144 6,-9 12,-17 18,-26 101,-148 179,-311 179,-311 0,0 8,49 32,132 12,41 36,87 58,132 -95,78 -154,168 -175,226 -38,109 -8,159 48,170 25,5 61,-6 87,-17 34,-12 74,-30 112,-58 64,-47 125,-113 122,-202 -2,-41 -13,-82 -28,-120 81,-34 186,-53 319,-37 285,33 342,212 331,286 -11,75 -71,116 -91,129 -20,12 -26,16 -24,25 2,14 12,13 29,11 24,-4 150,-61 155,-199 8,-176 -160,-369 -457,-367l0 0 0 0zm-2202 743c-94,103 -227,142 -284,109 -61,-36 -37,-187 79,-298 71,-66 162,-128 223,-166 13,-8 34,-20 58,-35 4,-3 7,-4 7,-4 4,-3 9,-6 14,-9 44,157 2,294 -97,403l0 0zm690 -470c-33,80 -102,287 -144,275 -36,-9 -58,-166 -7,-319 26,-78 80,-170 112,-206 52,-58 109,-78 123,-54 17,31 -64,255 -84,304l0 0zm569 273c-14,6 -27,11 -33,8 -5,-3 6,-12 6,-12 0,0 71,-76 100,-112 15,-21 35,-44 55,-71l0 8c0,92 -88,153 -128,179l0 0zm439 -101c-10,-7 -9,-31 25,-105 14,-30 45,-79 98,-126 6,19 10,37 10,55 -1,115 -83,159 -133,176l0 0z"/>
 </g>
</svg>
