<?xml version="1.0" encoding="UTF-8"?>
<!DOCTYPE svg PUBLIC "-//W3C//DTD SVG 1.1//EN" "http://www.w3.org/Graphics/SVG/1.1/DTD/svg11.dtd">
<!-- Creator: CorelDRAW X7 -->
<svg xmlns="http://www.w3.org/2000/svg" xml:space="preserve" width="43.968mm" height="44.0864mm" version="1.1" style="shape-rendering:geometricPrecision; text-rendering:geometricPrecision; image-rendering:optimizeQuality; fill-rule:evenodd; clip-rule:evenodd"
viewBox="0 0 4400 4412"
 xmlns:xlink="http://www.w3.org/1999/xlink">
 <defs>
  <style type="text/css">
   <![CDATA[
    .fil0 {fill:#FEFEFE}
   ]]>
  </style>
 </defs>
 <g id="Layer_x0020_1">
  <metadata id="CorelCorpID_0Corel-Layer"/>
  <path class="fil0" d="M2198 0c1172,0 2130,914 2202,2067 -102,93 -249,208 -417,311 5,-57 8,-114 8,-172 0,-990 -802,-1793 -1793,-1793 -665,0 -1246,363 -1555,901 -59,17 -118,39 -175,65 -142,64 -274,152 -400,255 252,-941 1110,-1634 2130,-1634zm2141 2740c-239,960 -1107,1672 -2141,1672 -1157,0 -2106,-892 -2198,-2026 139,-146 278,-286 418,-395 -8,70 -12,142 -12,215 0,990 802,1793 1792,1793 693,0 1293,-393 1592,-967 193,-75 382,-181 549,-292zm-2141 -1936c775,0 1402,628 1402,1402 0,133 -18,262 -53,384 -151,52 -298,76 -420,51 62,-132 96,-280 96,-435 0,-566 -459,-1025 -1025,-1025 -248,0 -475,88 -652,234 -141,-69 -275,-112 -403,-132 257,-294 635,-479 1055,-479zm1037 2346c-257,281 -626,458 -1037,458 -774,0 -1401,-628 -1401,-1402 0,-150 23,-294 66,-429 117,-16 243,-3 382,51 -46,117 -72,244 -72,378 0,566 459,1025 1025,1025 220,0 423,-69 590,-187 140,75 291,107 447,106zm-1037 -1582c353,0 638,286 638,638 0,83 -16,163 -45,236 -100,-84 -187,-176 -277,-271 -160,-169 -331,-349 -601,-536 86,-43 183,-67 285,-67zm240 1229c-74,30 -155,47 -240,47 -352,0 -637,-286 -637,-638 0,-65 9,-128 28,-188 254,171 414,340 563,497 93,98 182,192 286,282z"/>
 </g>
</svg>
