<?xml version="1.0" encoding="UTF-8"?>
<!DOCTYPE svg PUBLIC "-//W3C//DTD SVG 1.1//EN" "http://www.w3.org/Graphics/SVG/1.1/DTD/svg11.dtd">
<!-- Creator: CorelDRAW X7 -->
<svg xmlns="http://www.w3.org/2000/svg" xml:space="preserve" width="69.6286mm" height="81.2334mm" version="1.1" style="shape-rendering:geometricPrecision; text-rendering:geometricPrecision; image-rendering:optimizeQuality; fill-rule:evenodd; clip-rule:evenodd"
viewBox="0 0 7057 8233"
 xmlns:xlink="http://www.w3.org/1999/xlink"
 aria-hidden="true"
 focusable="false"
 data-prefix="fab"
 data-icon="css3-alt"
 role="img">
 <defs>
  <style type="text/css">
   <![CDATA[
    .fil0 {fill:#2E4656}
   ]]>
  </style>
 </defs>
 <g id="Layer_x0020_1">
  <metadata id="CorelCorpID_0Corel-Layer"/>
  <g id="_59433196336">
   <path class="fil0" d="M0 0l641 7274 2888 959 2887 -959 641 -7274 -7057 0zm5754 1470l-88 870 -2119 906 -6 1 2050 0 -236 2695 -1804 527 -1816 -537 -118 -1358 899 0 59 704 966 245 1006 -283 68 -1133 -3057 -9 0 -2 -3 2 -66 -851 2060 -858 119 -49 -2258 0 -107 -870 4451 0z"/>
  </g>
 </g>
</svg>
