<?xml version="1.0" encoding="UTF-8"?>
<!DOCTYPE svg PUBLIC "-//W3C//DTD SVG 1.1//EN" "http://www.w3.org/Graphics/SVG/1.1/DTD/svg11.dtd">
<!-- Creator: CorelDRAW X7 -->
<svg xmlns="http://www.w3.org/2000/svg" xml:space="preserve" width="77.8618mm" height="47.6886mm" version="1.1" style="shape-rendering:geometricPrecision; text-rendering:geometricPrecision; image-rendering:optimizeQuality; fill-rule:evenodd; clip-rule:evenodd"
viewBox="0 0 7708 4721"
 xmlns:xlink="http://www.w3.org/1999/xlink"
 aria-hidden="true"
 focusable="false"
 data-prefix="fab"
 data-icon="node"
 role="img">
 <defs>
  <style type="text/css">
   <![CDATA[
    .fil0 {fill:#2E4656}
   ]]>
  </style>
 </defs>
 <g id="Layer_x0020_1">
  <metadata id="CorelCorpID_0Corel-Layer"/>
  <g id="_59433018800">
   <path class="fil0" d="M3809 4721c-25,0 -50,-7 -73,-19l-231 -138c-35,-19 -18,-26 -6,-30 45,-15 55,-19 105,-48 4,-2 12,-1 16,1l179 106c6,4 15,4 21,0l696 -402c6,-4 11,-11 11,-19l0 -804c0,-8 -3,-15 -11,-19l-696 -401c-6,-3 -14,-3 -21,0l-697 401c-7,4 -10,12 -10,19l0 804c0,7 4,14 10,18l191 109c103,52 167,-9 167,-69l0 -794c0,-11 9,-21 21,-21l88 0c10,0 20,9 20,21l0 794c0,138 -75,216 -206,216 -40,0 -72,0 -160,-43l-183 -105c-45,-26 -74,-74 -74,-126l0 -804c0,-51 28,-101 74,-126l696 -402c45,-26 102,-26 146,0l696 402c44,27 73,75 73,126l0 804c0,52 -27,101 -73,126l-696 403c-21,13 -46,20 -73,20l0 0zm563 -792c0,-151 -101,-191 -316,-220 -216,-29 -238,-43 -238,-94 0,-42 18,-97 178,-97 143,0 196,31 218,127 3,10 10,16 19,16l91 0c6,0 11,-2 14,-6 4,-5 6,-10 5,-16 -14,-166 -124,-243 -347,-243 -199,0 -317,84 -317,224 0,153 118,194 309,213 227,23 245,56 245,100 0,79 -62,111 -209,111 -184,0 -225,-46 -239,-137 -1,-10 -9,-17 -20,-17l-90 0c-11,0 -21,8 -21,20 0,117 64,257 369,257 222,0 349,-87 349,-238l0 0zm656 -604c0,74 -60,134 -133,134 -74,0 -134,-60 -134,-134 0,-76 63,-134 134,-134 72,-1 133,58 133,134zm-21 0c0,-63 -51,-112 -114,-112 -61,0 -112,49 -112,112 0,63 51,113 112,113 63,-1 114,-51 114,-113zm-55 75l-31 0c-1,-7 -6,-46 -6,-47 -2,-9 -5,-13 -16,-13l-26 0 0 60 -29 0 0 -151 52 0c18,0 53,0 53,40 0,28 -18,34 -29,37 20,2 22,15 25,34 1,12 4,33 7,40l0 0zm-33 -106c0,-21 -15,-21 -22,-21l-24 0 0 42 23 0c19,0 23,-13 23,-21l0 0zm-3265 -1716c0,-33 -17,-62 -45,-78l-738 -425c-12,-7 -27,-10 -41,-12l-7 0c-15,0 -28,5 -41,12l-737 425c-28,16 -45,46 -45,78l1 1144c0,15 9,30 22,38 13,9 30,9 44,0l439 -251c28,-17 44,-46 44,-78l0 -534c0,-32 17,-62 45,-77l187 -108c14,-8 29,-12 44,-12 16,0 32,4 45,12l186 108c28,15 45,45 45,77l0 534c0,32 17,62 45,78l438 251c13,9 31,9 45,0 13,-7 21,-23 21,-38l3 -1144 0 0zm4037 -1249l0 2124c0,31 -17,62 -45,77l-738 427c-28,15 -62,15 -89,0l-739 -427c-27,-15 -44,-46 -44,-77l0 -853c0,-31 17,-61 44,-77l739 -426c27,-16 61,-16 89,0l184 106c21,12 47,-4 47,-26l0 -1133c0,-33 36,-55 66,-38l440 246c28,14 46,44 46,77zm-554 1552c0,-8 -5,-16 -11,-19l-253 -147c-7,-4 -16,-4 -23,0l-253 147c-7,3 -11,11 -11,19l0 293c0,8 5,15 11,19l253 146c7,3 16,3 22,0l253 -146c7,-4 10,-11 10,-19l0 -293 2 0zm2526 -8c28,-16 45,-46 45,-77l0 -206c0,-32 -17,-62 -45,-77l-733 -427c-28,-15 -61,-15 -89,0l-738 427c-28,15 -45,45 -45,77l0 852c0,33 17,62 45,77l733 418c27,16 60,16 88,0l443 -247c30,-16 30,-60 0,-77l-743 -426c-14,-8 -23,-23 -23,-39l0 -267c0,-16 9,-30 23,-38l231 -134c14,-9 32,-9 45,0l231 134c13,8 23,22 23,38l0 210c0,33 37,55 67,38l442 -256 0 0zm-931 42c-4,3 -8,8 -8,14l0 164c0,6 4,12 8,15l143 81c4,4 12,4 16,0l143 -82c4,-3 8,-8 8,-14l0 -164c0,-6 -4,-12 -8,-14l-143 -82c-4,-4 -12,-4 -16,0l-143 82zm-3061 524l0 -848c0,-32 -19,-62 -47,-77l-736 -424c-25,-15 -60,-17 -89,0l-736 424c-28,15 -47,44 -47,77l0 848c0,33 23,62 48,77l737 424c29,17 63,15 90,0l734 -424c22,-12 38,-33 44,-57 1,-6 2,-13 2,-20l0 0zm-895 -1505l-10 6 14 0 -4 -6zm918 1569l-5 -9 0 11 5 -2z"/>
  </g>
 </g>
</svg>
