<?xml version="1.0" encoding="UTF-8"?>
<!DOCTYPE svg PUBLIC "-//W3C//DTD SVG 1.1//EN" "http://www.w3.org/Graphics/SVG/1.1/DTD/svg11.dtd">
<!-- Creator: CorelDRAW X7 -->
<svg xmlns="http://www.w3.org/2000/svg" xml:space="preserve" width="209.999mm" height="170.558mm" version="1.1" style="shape-rendering:geometricPrecision; text-rendering:geometricPrecision; image-rendering:optimizeQuality; fill-rule:evenodd; clip-rule:evenodd"
viewBox="0 0 25750 20914"
 xmlns:xlink="http://www.w3.org/1999/xlink"
 aria-hidden="true"
 focusable="false"
 data-prefix="fab"
 data-icon="twitter"
 role="img">
 <defs>
  <style type="text/css">
   <![CDATA[
    .fil0 {fill:white}
   ]]>
  </style>
 </defs>
 <g id="Layer_x0020_1">
  <metadata id="CorelCorpID_0Corel-Layer"/>
  <g id="twitter.svg">
   <path class="fil0" d="M23103 5212c16,229 16,458 16,686 0,6977 -5310,15016 -15015,15016 -2990,0 -5768,-866 -8104,-2369 425,49 833,65 1274,65 2468,0 4739,-833 6552,-2255 -2320,-49 -4264,-1568 -4934,-3660 327,49 654,82 997,82 473,0 947,-65 1388,-180 -2418,-490 -4231,-2614 -4231,-5179l0 -66c702,393 1519,638 2385,670 -1421,-947 -2353,-2565 -2353,-4395 0,-980 262,-1879 719,-2663 2598,3202 6503,5294 10882,5522 -82,-392 -131,-800 -131,-1209 0,-2908 2353,-5277 5278,-5277 1519,0 2892,637 3856,1667 1192,-229 2336,-670 3349,-1275 -392,1226 -1225,2255 -2320,2908 1062,-114 2091,-408 3039,-816 -719,1045 -1618,1976 -2647,2728l0 0z"/>
  </g>
 </g>
</svg>
